<?xml version="1.0" encoding="utf-8"?>
<!-- Generator: Adobe Illustrator 27.1.1, SVG Export Plug-In . SVG Version: 6.00 Build 0)  -->
<svg version="1.1" id="Layer_1" xmlns="http://www.w3.org/2000/svg" xmlns:xlink="http://www.w3.org/1999/xlink" x="0px" y="0px"
	 viewBox="0 0 1278.6 95.9" style="enable-background:new 0 0 1278.6 95.9;" xml:space="preserve">
<style type="text/css">
	.st0{fill-rule:evenodd;clip-rule:evenodd;fill:#0C121C;}
</style>
<path class="st0" d="M163.3,95.9h127.9l0-22.3H190.7V58.3h86.9V37.8h-87V22.3h100.5l0-22.3H163.3L163.3,95.9L163.3,95.9z
	 M474.7,95.9h127.9l0-22.3H502.1V58.3H589V37.8h-87V22.3h100.5l0-22.3H474.7L474.7,95.9L474.7,95.9z M972.5,95.9h127.9l0-22.3H1000
	V58.3h86.9V37.8h-87V22.3h100.5l0-22.3H972.6L972.5,95.9L972.5,95.9z M319,95.9h27.4l0-37.6h86.9V37.8h-87V22.3h100.5l0-22.3H319
	L319,95.9L319,95.9z M1128.2,95.9l27.5,0V62.3h58.3v0.2l28.1,33.4h36.5L1249.3,61c12.9-3.9,22.3-15.8,22.3-29.9
	c0-17.2-14-31.1-31.3-31.1c-37.4,0-74.8,0-112.2,0V95.9L1128.2,95.9z M1233.1,22.5c0.2,0,0.5,0,0.7,0c4.7,0,8.5,3.9,8.5,8.7
	c0,4.8-3.8,8.7-8.5,8.7c-0.1,0-0.3,0-0.4,0c-0.1,0-0.2,0-0.3,0h-77.3V22.4h77.2C1233,22.5,1233,22.5,1233.1,22.5L1233.1,22.5z
	 M27.7,47.9v0.2v25.4c19.1,0,38.3,0,57.4,0c7.2,0,12.5-1.3,15.8-4c3.3-2.6,5-6.8,5-12.5c0.1-3,0.1-6,0.1-9c0,0,0,0,0,0
	c0,0,0-0.1,0-0.1c0,0,0,0,0,0c0-3-0.1-6-0.1-9c0-5.7-1.7-9.8-5-12.5c-3.3-2.7-8.6-4-15.8-4c-19.1,0-38.3,0-57.4,0V47.9L27.7,47.9z
	 M135,65.1c-0.6,10.7-2.9,18.5-8.5,23.4c-5.7,4.9-14.8,7.4-27.2,7.4H0V48.1v-0.2V0h99.3c12.4,0,21.5,2.5,27.2,7.4
	c5.7,4.9,8,12.7,8.5,23.4C135.6,42.3,135.6,53.3,135,65.1L135,65.1z M837,47.9v0.2v25.4c19.1,0,38.3,0,57.4,0c7.2,0,12.5-1.3,15.8-4
	c3.3-2.6,5-6.8,5-12.5c0.1-3,0.1-6,0.1-9c0,0,0,0,0,0c0,0,0-0.1,0-0.1c0,0,0,0,0,0c0-3-0.1-6-0.1-9c0-5.7-1.7-9.8-5-12.5
	c-3.3-2.7-8.6-4-15.8-4c-19.1,0-38.3,0-57.4,0V47.9L837,47.9z M944.3,65.1c-0.6,10.7-2.9,18.5-8.5,23.4c-5.7,4.9-14.8,7.4-27.2,7.4
	h-99.3V48.1v-0.2V0h99.3C921,0,930,2.5,935.7,7.4c5.7,4.9,7.9,12.7,8.5,23.4C944.9,42.3,944.9,53.3,944.3,65.1L944.3,65.1z
	 M747.1,95.9l-88.7-71.5l0,71.5h-28.1l0-95.9l43.1,0l79.9,64.3l0-64.3h28.1v95.9L747.1,95.9z"/>
</svg>
