<svg width="108" height="8" viewBox="0 0 108 8" fill="none" xmlns="http://www.w3.org/2000/svg">
<path fill-rule="evenodd" clip-rule="evenodd" d="M15.1876 7.83673H12.9016V0.163265H15.1876V7.83673ZM41.6214 5.30612C41.6214 5.52381 41.5952 5.7415 41.5689 5.85034C41.4638 6.9932 40.623 7.94558 39.4931 7.94558L36.1035 7.97279L32.7138 7.94558C31.584 7.94558 30.7168 6.9932 30.638 5.85034C30.5592 4.59864 30.5329 3.40136 30.638 2.14966C30.7431 1.0068 31.5577 0.0544218 32.7138 0.0544218L36.1297 0L39.5194 0.0272109C40.6492 0.0272109 41.5163 0.979592 41.5952 2.12245L41.6214 2.63946H39.5719V2.55782C39.5719 2.14966 39.2829 1.82313 38.915 1.82313H36.1035H36.0772H33.3445C32.9766 1.82313 32.6876 2.14966 32.6876 2.55782V5.44218C32.6876 5.85034 32.9766 6.17687 33.3445 6.17687H36.0772H38.8887C39.2566 6.17687 39.5456 5.85034 39.5456 5.44218V5.30612H41.6214ZM17.6313 5.30612H20.1538V5.44218C20.1538 5.7415 20.2326 5.93197 20.3903 6.04082C20.5742 6.17687 20.8896 6.23129 21.3888 6.23129H24.9624C25.2777 6.23129 25.5142 6.17687 25.6455 6.06803C25.7769 5.95918 25.8557 5.79592 25.8557 5.57823C25.8557 5.33333 25.7769 5.17007 25.6193 5.08844C25.4616 4.97959 25.12 4.89796 24.5945 4.89796L20.2852 4.78912C19.2604 4.76191 18.551 4.57143 18.2094 4.2449C17.8415 3.91837 17.6576 3.31973 17.6576 2.44898C17.6576 2.01361 17.7101 1.63265 17.789 1.33333C17.8941 1.03401 18.0255 0.816327 18.2619 0.62585C18.4984 0.408163 18.84 0.244898 19.2342 0.163265C19.6283 0.0816327 20.2852 0.0272109 21.2049 0.0272109H25.1988C26.1973 0.0272109 26.9068 0.190476 27.3272 0.517007C27.7739 0.843537 27.9841 1.38776 27.9841 2.12245C27.9841 2.17687 27.9841 2.23129 27.9841 2.28571C27.9841 2.34014 27.9841 2.42177 27.9841 2.55782L25.5142 2.53061V2.47619C25.5142 2.23129 25.4353 2.01361 25.304 1.90476C25.1726 1.76871 24.9361 1.71429 24.647 1.71429H21.3888C20.8896 1.71429 20.548 1.76871 20.3903 1.85034C20.2326 1.93197 20.1538 2.09524 20.1538 2.34014C20.1538 2.55782 20.2326 2.72109 20.364 2.82993C20.5217 2.93878 20.7844 3.02041 21.1786 3.02041L25.6455 3.10204C26.6178 3.12925 27.3272 3.31973 27.7476 3.70068C28.1418 4.08163 28.352 4.70748 28.352 5.63265C28.352 6.17687 28.2732 6.58503 28.1418 6.88435C27.9841 7.18367 27.7476 7.42857 27.406 7.64626C27.1696 7.78231 26.8542 7.86395 26.4601 7.91837C26.066 7.97279 25.4879 8 24.7521 8H21.2311C19.8122 8 18.84 7.86395 18.367 7.56463C17.9466 7.31973 17.7364 6.88435 17.6576 6.28571C17.6313 6.06803 17.6313 5.85034 17.6313 5.63265C17.6313 5.4966 17.6313 5.38776 17.6313 5.30612ZM62.6687 6.01361L66.6364 0.136054H69.2377L63.9299 7.80952H62.6424H61.3549L56.0996 0.163265H58.701L62.6687 6.01361ZM71.0245 7.83673H80.9043V6.04082H73.1266V4.81633H79.8533V3.18367H73.1266V1.93197H80.9043V0.136054H71.0245V7.83673ZM83.1641 7.83673H85.2924V5.14286H89.7857V5.17007L91.9666 7.83673H94.7781L92.5184 5.03401C93.5169 4.73469 94.2526 3.7551 94.2526 2.63946C94.2526 1.2517 93.1753 0.136054 91.8352 0.136054C88.9448 0.136054 86.0545 0.136054 83.1641 0.136054V7.83673ZM91.2834 1.93197C91.3097 1.93197 91.3097 1.93197 91.336 1.93197C91.7038 1.93197 91.9929 2.23129 91.9929 2.63946C91.9929 3.02041 91.7038 3.34694 91.336 3.34694H91.3097H91.2834H85.2924V1.93197H91.2834ZM100.585 7.83673H101.426H101.899H102.74V5.03401L107.995 0.136054H104.973L101.689 3.18367L98.378 0.136054H95.3562L100.611 5.03401L100.585 7.83673ZM46.6402 1.82313H49.3729H49.3992H52.2107C52.5786 1.82313 52.8676 2.14966 52.8676 2.55782V5.44218C52.8676 5.85034 52.5786 6.17687 52.2107 6.17687H49.3992H46.6665C46.2986 6.17687 46.0096 5.85034 46.0096 5.44218V2.53061C45.9833 2.14966 46.2723 1.82313 46.6402 1.82313ZM46.0358 0.0272109C44.906 0.0544218 44.0651 0.979592 43.96 2.12245C43.9075 2.7483 43.8549 3.34694 43.8549 3.97279C43.8549 4.59864 43.9075 5.22449 43.96 5.82313C44.0389 6.96599 44.8797 7.89116 46.0358 7.91837C48.2956 7.97279 50.5553 7.97279 52.7888 7.91837C53.9187 7.89116 54.7595 6.96599 54.8646 5.82313C54.9172 5.19728 54.9697 4.59864 54.9697 3.97279C54.9697 3.34694 54.9172 2.7483 54.8646 2.12245C54.7858 0.979592 53.945 0.0544218 52.7888 0.0272109C50.5291 0 48.2956 0 46.0358 0.0272109ZM2.15465 3.97279V6.01361C3.62611 6.01361 5.12385 6.01361 6.59532 6.01361C7.14712 6.01361 7.56754 5.90476 7.80402 5.68708C8.06678 5.46939 8.19816 5.14286 8.19816 4.68027C8.19816 4.43537 8.19816 4.19048 8.19816 3.97279C8.19816 3.72789 8.19816 3.48299 8.19816 3.26531C8.19816 2.80272 8.06678 2.47619 7.80402 2.2585C7.54126 2.04082 7.14712 1.93197 6.59532 1.93197C5.12385 1.93197 3.62611 1.93197 2.15465 1.93197V3.97279ZM10.4316 5.36054C10.3791 6.20408 10.2214 6.82993 9.77473 7.2381C9.32804 7.64626 8.64486 7.83673 7.67264 7.83673H0V4V3.97279V0.136054H7.67264C8.64486 0.136054 9.32804 0.326531 9.77473 0.734694C10.2214 1.11565 10.3791 1.7415 10.4316 2.61225C10.4842 3.53742 10.4842 4.40816 10.4316 5.36054Z" fill="#0C121C"/>
</svg>
