<?xml version="1.0" encoding="utf-8"?>
<!-- Generator: Adobe Illustrator 27.1.1, SVG Export Plug-In . SVG Version: 6.00 Build 0)  -->
<svg version="1.1" id="DISCOVERY" xmlns="http://www.w3.org/2000/svg" xmlns:xlink="http://www.w3.org/1999/xlink" x="0px" y="0px"
	 viewBox="0 0 411 29.3" style="enable-background:new 0 0 411 29.3;" xml:space="preserve">
<style type="text/css">
	.st0{fill-rule:evenodd;clip-rule:evenodd;fill:#0C121C;}
</style>
<path class="st0" d="M57.8,28.8h-8.7l0-28.2h8.7L57.8,28.8L57.8,28.8z M158.4,19.5c0,0.8-0.1,1.6-0.2,2c-0.4,4.2-3.6,7.7-7.9,7.7
	l-12.9,0.1l-12.9-0.1c-4.3,0-7.6-3.5-7.9-7.7c-0.3-4.6-0.4-9,0-13.6c0.4-4.2,3.5-7.7,7.9-7.7L137.5,0l12.9,0.1
	c4.3,0,7.6,3.5,7.9,7.7l0.1,1.9l0,0h-7.8V9.7V9.4c0-1.5-1.1-2.7-2.5-2.7h-10.7h-0.1h-10.4c-1.4,0-2.5,1.2-2.5,2.7V20
	c0,1.5,1.1,2.7,2.5,2.7h10.4h0H148c1.4,0,2.5-1.2,2.5-2.7v-0.5H158.4L158.4,19.5z M67.1,19.5h9.6v0.5c0,1.1,0.3,1.8,0.9,2.2
	c0.7,0.5,1.9,0.7,3.8,0.7l13.6,0c1.2,0,2.1-0.2,2.6-0.6c0.5-0.4,0.8-1,0.8-1.8c0-0.9-0.3-1.5-0.9-1.8c-0.6-0.4-1.9-0.7-3.9-0.7
	l-16.4-0.4c-3.9-0.1-6.6-0.8-7.9-2c-1.4-1.2-2.1-3.4-2.1-6.6c0-1.6,0.2-3,0.5-4.1c0.4-1.1,0.9-1.9,1.8-2.6c0.9-0.8,2.2-1.4,3.7-1.7
	c1.5-0.3,4-0.5,7.5-0.5h15.2c3.8,0,6.5,0.6,8.1,1.8c1.7,1.2,2.5,3.2,2.5,5.9c0,0.2,0,0.4,0,0.6c0,0.2,0,0.5,0,1l-9.4-0.1V9.1
	c0-0.9-0.3-1.7-0.8-2.1c-0.5-0.5-1.4-0.7-2.5-0.7l-12.4,0c-1.9,0-3.2,0.2-3.8,0.5c-0.6,0.3-0.9,0.9-0.9,1.8c0,0.8,0.3,1.4,0.8,1.8
	c0.6,0.4,1.6,0.7,3.1,0.7l17,0.3c3.7,0.1,6.4,0.8,8,2.2c1.5,1.4,2.3,3.7,2.3,7.1c0,2-0.3,3.5-0.8,4.6c-0.6,1.1-1.5,2-2.8,2.8
	c-0.9,0.5-2.1,0.8-3.6,1c-1.5,0.2-3.7,0.3-6.5,0.3H80.8c-5.4,0-9.1-0.5-10.9-1.6c-1.6-0.9-2.4-2.5-2.7-4.7c-0.1-0.8-0.1-1.6-0.1-2.4
	C67.1,20.2,67.1,19.8,67.1,19.5L67.1,19.5z M238.5,22.1l15.1-21.6l9.9,0l-20.2,28.2h-4.9v0h-4.9L213.5,0.6l9.9,0L238.5,22.1
	L238.5,22.1z M270.3,28.8h37.6l0-6.6h-29.6v-4.5h25.6v-6h-25.6V7.1h29.6l0-6.6h-37.6L270.3,28.8L270.3,28.8z M316.5,28.8l8.1,0v-9.9
	h17.1v0.1l8.3,9.8h10.7l-8.6-10.3c3.8-1.1,6.6-4.7,6.6-8.8c0-5.1-4.1-9.2-9.2-9.2c-11,0-22,0-33,0V28.8L316.5,28.8z M347.4,7.1
	c0.1,0,0.1,0,0.2,0c1.4,0,2.5,1.1,2.5,2.6c0,1.4-1.1,2.6-2.5,2.6c0,0-0.1,0-0.1,0c0,0-0.1,0-0.1,0h-22.8V7.1L347.4,7.1
	C347.4,7.1,347.4,7.1,347.4,7.1L347.4,7.1z M382.8,28.8h3.2h0h1.8h0h3.2l0-10.3l20-18h-11.5l-12.5,11.2L374.4,0.5h-11.5l20,18
	L382.8,28.8L382.8,28.8z M177.5,6.7h10.4h0.1h10.7c1.4,0,2.5,1.2,2.5,2.7v10.6c0,1.5-1.1,2.7-2.5,2.7h-10.7h0h-10.4
	c-1.4,0-2.5-1.2-2.5-2.7V9.3C175,7.9,176.1,6.7,177.5,6.7L177.5,6.7z M175.2,0.1c-4.3,0.1-7.5,3.5-7.9,7.7c-0.2,2.3-0.4,4.5-0.4,6.8
	c0,2.3,0.2,4.6,0.4,6.8c0.3,4.2,3.5,7.6,7.9,7.7c8.6,0.2,17.2,0.2,25.7,0c4.3-0.1,7.5-3.5,7.9-7.7c0.2-2.3,0.4-4.5,0.4-6.8
	c0-2.3-0.2-4.5-0.4-6.8c-0.3-4.2-3.5-7.6-7.9-7.7C192.3,0,183.8,0,175.2,0.1L175.2,0.1z M8.2,14.6L8.2,14.6v7.5c5.6,0,11.3,0,16.9,0
	c2.1,0,3.7-0.4,4.6-1.2c1-0.8,1.5-2,1.5-3.7c0-0.9,0-1.8,0-2.6c0,0,0,0,0,0c0,0,0,0,0,0c0,0,0,0,0,0c0-0.9,0-1.8,0-2.6
	c0-1.7-0.5-2.9-1.5-3.7c-1-0.8-2.5-1.2-4.6-1.2c-5.6,0-11.3,0-16.9,0V14.6L8.2,14.6z M39.7,19.7c-0.2,3.1-0.8,5.4-2.5,6.9
	c-1.7,1.5-4.3,2.2-8,2.2H0V14.7v-0.1V0.5h29.2c3.7,0,6.3,0.7,8,2.2c1.7,1.4,2.3,3.7,2.5,6.9C39.9,13,39.9,16.2,39.7,19.7z"/>
</svg>
