<svg width="102" height="8" viewBox="0 0 102 8" fill="none" xmlns="http://www.w3.org/2000/svg">
<path fill-rule="evenodd" clip-rule="evenodd" d="M12.9111 8H23.0234V6.13973H15.0775V4.8634H21.9481V3.15328H15.0696V1.86027H23.0155V0H12.9111V8ZM37.5316 8H47.6438V6.13973H39.6979V4.8634H46.5686V3.15328H39.69V1.86027H47.6359V0H37.5316V8ZM76.8895 8H87.0018V6.13973H79.0638V4.8634H85.9344V3.15328H79.0558V1.86027H87.0018V0H76.8974L76.8895 8ZM25.2213 8H27.3877V4.8634H34.2583V3.15328H27.3798V1.86027H35.3257V0H25.2213V8ZM89.1997 8H91.374V5.19708H95.9834V5.21376L98.2051 8H101.091L98.7743 5.08863C99.7943 4.76329 100.537 3.77059 100.537 2.59437C100.537 1.15954 99.4306 0 98.0628 0C95.1058 0 92.1488 0 89.1918 0V8H89.1997ZM97.4935 1.87696C97.5093 1.87696 97.5331 1.87696 97.5489 1.87696C97.9205 1.87696 98.2209 2.20229 98.2209 2.60271C98.2209 3.00313 97.9205 3.32847 97.5489 3.32847C97.541 3.32847 97.5251 3.32847 97.5172 3.32847C97.5093 3.32847 97.5014 3.32847 97.4935 3.32847H91.3819V1.86861H97.4856C97.4856 1.87696 97.4856 1.87696 97.4935 1.87696ZM2.19007 3.99583V4.01251V6.13139C3.70018 6.13139 5.21821 6.13139 6.72832 6.13139C7.29758 6.13139 7.71662 6.02294 7.97753 5.79771C8.23844 5.58081 8.37285 5.23045 8.37285 4.75495C8.38076 4.50469 8.38076 4.25443 8.38076 4.00417V3.99583C8.38076 3.74557 8.37285 3.49531 8.37285 3.24505C8.37285 2.76955 8.23844 2.42753 7.97753 2.20229C7.71662 1.97706 7.29758 1.86861 6.72832 1.86861C5.21821 1.86861 3.70018 1.86861 2.19007 1.86861V3.99583ZM10.6736 5.43066C10.6262 6.32325 10.4443 6.97393 10.0016 7.38269C9.5509 7.79145 8.83142 8 7.85103 8H0V4.01251V3.99583V0H7.85103C8.83142 0 9.5509 0.208551 10.0016 0.61731C10.4522 1.02607 10.6341 1.67675 10.6736 2.56934C10.721 3.52868 10.721 4.4463 10.6736 5.43066ZM66.1764 3.99583V4.01251V6.13139C67.6865 6.13139 69.2045 6.13139 70.7146 6.13139C71.2839 6.13139 71.7029 6.02294 71.9638 5.79771C72.2247 5.58081 72.3591 5.23045 72.3591 4.75495C72.3671 4.50469 72.3671 4.25443 72.3671 4.00417V3.99583C72.3671 3.74557 72.3591 3.49531 72.3591 3.24505C72.3591 2.76955 72.2247 2.42753 71.9638 2.20229C71.7029 1.97706 71.2839 1.86861 70.7146 1.86861C69.2045 1.86861 67.6865 1.86861 66.1764 1.86861V3.99583ZM74.6599 5.43066C74.6125 6.32325 74.4306 6.97393 73.9879 7.38269C73.5372 7.79145 72.8177 8 71.8373 8H63.9863V4.01251V3.99583V0H71.8373C72.8177 0 73.5293 0.208551 73.9799 0.61731C74.4306 1.02607 74.6046 1.67675 74.652 2.56934C74.7073 3.52868 74.7073 4.4463 74.6599 5.43066ZM59.0685 8L52.0556 2.03545V8H49.8339V0H53.2415L59.5587 5.36392V0H61.7804V8H59.0685Z" fill="#0C121C"/>
</svg>
