<svg width="139" height="8" viewBox="0 0 139 8" fill="none" xmlns="http://www.w3.org/2000/svg">
<path fill-rule="evenodd" clip-rule="evenodd" d="M47.081 5.01818V3.41818H53.8276C53.8276 4.29091 53.8276 5.09091 53.755 5.8909C53.6825 7.05454 52.7394 7.99999 51.5787 7.99999H48.024H44.4694C43.3087 7.99999 42.3656 7.05454 42.2931 5.8909L42.2856 5.75551C42.2158 4.5011 42.153 3.37288 42.2931 2.10909C42.3656 0.945454 43.2361 0 44.4694 0H48.024H51.5787C52.7394 0 53.6825 0.945454 53.755 2.10909L53.8276 2.61818H51.6512V2.54545C51.6512 2.18182 51.2885 1.81818 50.9258 1.81818H47.9515H45.0497C44.6145 1.81818 44.3243 2.10909 44.3243 2.54545V5.45454C44.3243 5.81818 44.687 6.18181 45.0497 6.18181H47.9515H50.9258C51.3611 6.18181 51.6512 5.8909 51.6512 5.45454V5.01818H47.081ZM116.215 4.8V6.03636H124.34V7.85454H114.039V0.0727268H124.34V1.89091H116.215V3.12727H123.252V4.8H116.215ZM105.987 6.03636L101.852 0.0727268H99.095L104.681 7.85454H105.987H107.365L112.878 0.0727268H110.194L105.987 6.03636ZM31.4115 0.0727268L37.8679 5.30909V0.0727268H40.1893V7.85454H37.3601L30.1783 2.10909V7.85454H27.9294V0.0727268H31.4115ZM66.3052 1.89091V0.0727268H56.0039V7.85454H66.3052V6.03636H58.1802V4.8H65.217V3.12727H58.1802V1.89091H66.3052ZM13.0579 7.85454L18.5712 0.0727268H21.2554L26.8412 7.85454H24.0846L22.9964 6.25454H16.9027L15.8146 7.85454H13.0579ZM17.9909 4.65454H19.877H21.7632L19.877 1.89091L17.9909 4.65454ZM11.607 2.61818C11.607 1.23636 10.4463 0.0727268 9.06799 0.0727268H0V7.85454H2.24886V5.16363H6.96422L9.28563 7.85454H12.2599L9.79343 5.01818C10.809 4.72727 11.607 3.78181 11.607 2.61818ZM8.56019 3.34545H2.24886V1.89091H8.48764H8.56019C8.92291 1.89091 9.21308 2.18182 9.21308 2.61818C9.21308 2.98182 8.92291 3.34545 8.56019 3.34545ZM82.3374 0.0727268C83.7157 0.0727268 84.8764 1.23636 84.8764 2.61818C84.8764 3.78181 84.0784 4.72727 83.0628 5.01818L85.5293 7.85454H82.555L80.2336 5.16363H75.5182V7.85454H73.2694V0.0727268H82.3374ZM75.5182 3.34545H81.8296C82.1923 3.34545 82.4824 2.98182 82.4824 2.61818C82.4824 2.18182 82.1923 1.89091 81.8296 1.89091H81.757H75.5182V3.34545ZM136.31 5.01818C137.326 4.72727 138.124 3.70909 138.124 2.61818C138.124 1.23636 136.963 0.0727268 135.585 0.0727268H126.517V7.85454H128.766V5.16363H133.481L135.802 7.85454H138.777L136.31 5.01818ZM135.077 3.34545H128.766V1.89091H135.004H135.077C135.44 1.89091 135.73 2.18182 135.73 2.61818C135.73 2.98182 135.44 3.34545 135.077 3.34545ZM96.2658 0C97.4991 0 98.3696 0.945454 98.4421 2.10909L98.5147 3.2V4V5.09091L98.4421 5.8909C98.3696 7.05454 97.4265 7.99999 96.2658 7.99999H92.7112H89.1565C87.9233 7.99999 87.0527 7.05454 86.9802 5.8909L86.9077 4.8V4V2.90909L86.9802 2.10909C87.0527 0.945454 87.9958 0 89.1565 0H92.7112H96.2658ZM95.6129 6.18181C96.0482 6.18181 96.3384 5.8909 96.3384 5.45454V2.54545C96.3384 2.18182 95.9757 1.81818 95.6129 1.81818H92.6386H89.7369C89.3016 1.81818 89.0114 2.10909 89.0114 2.54545V5.45454C89.0114 5.81818 89.3742 6.18181 89.7369 6.18181H92.6386H95.6129Z" fill="#0C121C"/>
</svg>
